<svg aria-hidden="true" style="position: absolute; width: 0; height: 0; overflow: hidden;" version="1.1" xmlns="http://www.w3.org/2000/svg" xmlns:xlink="http://www.w3.org/1999/xlink">
<defs>

<symbol id="icon-finger1" viewBox="0 0 28 32">
<path d="M24.667 12c-0.492 0-0.954 0.134-1.35 0.368-0.149-1.331-1.281-2.368-2.65-2.368-0.651 0-1.249 0.236-1.714 0.628-0.467-0.775-1.316-1.295-2.286-1.295-0.485 0-0.941 0.13-1.333 0.358v-7.025c-0-1.471-1.196-2.667-2.667-2.667s-2.667 1.196-2.667 2.667v17.843c0 0.336-0.221 0.508-0.316 0.567s-0.351 0.179-0.648 0.029l-4.281-2.141c-0.39-0.195-0.827-0.298-1.263-0.298-1.557 0-2.824 1.267-2.824 2.824v0.509c0 0.185 0.077 0.361 0.212 0.488l7.695 7.182c1.611 1.503 3.711 2.331 5.913 2.331h4.18c4.779 0 8.667-3.888 8.667-8.667v-8.667c0-1.471-1.196-2.667-2.667-2.667zM26 23.333c0 4.044-3.29 7.333-7.333 7.333h-4.18c-1.863 0-3.641-0.7-5.003-1.973l-7.483-6.984v-0.219c0-0.822 0.669-1.491 1.491-1.491 0.23 0 0.461 0.055 0.667 0.158l4.281 2.141c0.624 0.313 1.352 0.279 1.946-0.087 0.594-0.367 0.949-1.003 0.949-1.702v-17.843c0-0.735 0.598-1.333 1.333-1.333s1.333 0.598 1.333 1.333v10c0 0.368 0.298 0.667 0.667 0.667s0.667-0.298 0.667-0.667v-0.667c0-0.735 0.598-1.333 1.333-1.333s1.333 0.598 1.333 1.333v0.667c0 0.001 0 0.003 0 0.004v0.001c0.003 0.366 0.3 0.662 0.667 0.662 0.369 0 0.667-0.298 0.667-0.667v-0.010c0.005-0.73 0.603-1.323 1.333-1.323 0.735 0 1.333 0.598 1.333 1.333v2c0 0.368 0.298 0.667 0.667 0.667s0.667-0.298 0.667-0.667c0-0.735 0.598-1.333 1.333-1.333s1.333 0.598 1.333 1.333v8.667z"></path>
</symbol>
<symbol id="icon-antenna" viewBox="0 0 32 32">
<path fill="#212121" style="fill: var(--color1, #212121)" d="M30.773 22.098l-8.443-8.505 0.937-4.616c0.225 0.090 0.485 0.144 0.758 0.146h0.007c0.008 0 0.017 0 0.026 0 1.192 0 2.159-0.967 2.159-2.159s-0.967-2.159-2.159-2.159c-1.192 0-2.159 0.967-2.159 2.159 0 0.259 0.046 0.508 0.13 0.739l-0.005-0.015-4.96 0.606-8.091-8.133c-0.096-0.098-0.229-0.159-0.376-0.16h-0c-0.14 0.001-0.274 0.057-0.373 0.155l-1.512 1.504c-0.096 0.097-0.156 0.23-0.156 0.377s0.060 0.281 0.156 0.377v0l0.814 0.825c-1.143 2.062-1.816 4.522-1.816 7.139 0 4.106 1.656 7.824 4.336 10.525l-0.001-0.001c0.043 0.041 0.092 0.074 0.146 0.097-0.032 0.164-0.051 0.353-0.052 0.546v6.188h-6.4c-1.472 0.001-2.666 1.194-2.667 2.666v1.067c0 0.295 0.239 0.534 0.534 0.534h24.534c0.294 0 0.533-0.239 0.533-0.534v-1.067c-0.002-1.472-1.195-2.665-2.666-2.666h-6.4v-2.742c1.003 0.21 2.024 0.317 3.049 0.32 2.58-0.003 5.005-0.663 7.117-1.822l-0.077 0.039 0.818 0.823c0.099 0.101 0.235 0.159 0.376 0.16 0.14-0.001 0.274-0.057 0.373-0.155l1.512-1.504c0.096-0.097 0.156-0.23 0.156-0.377s-0.060-0.281-0.156-0.377v0zM23.28 6.233c0.193-0.192 0.459-0.31 0.752-0.31 0.589 0 1.067 0.478 1.067 1.066s-0.477 1.066-1.067 1.066c-0 0-0 0-0 0h-0.004c-0.587-0.003-1.061-0.479-1.061-1.066 0-0.295 0.12-0.563 0.314-0.756l0-0h-0.002zM22.024 9.737l-0.598 2.946-1.175-1.183 1.774-1.763zM21.419 8.835l-1.92 1.909-1.486-1.493 3.406-0.416zM24.004 28.8c0.884 0 1.6 0.716 1.6 1.6v0 0.534h-23.466v-0.534c0-0.884 0.716-1.6 1.6-1.6v0h20.267zM16.538 26.666v1.067h-5.334v-1.067h5.334zM11.204 25.6v-4.053c0-1.294 1.196-2.346 2.667-2.346s2.667 1.053 2.667 2.346v4.053h-5.334zM17.604 23.904v-2.357c0-1.882-1.675-3.413-3.733-3.413-0.017-0-0.038-0-0.058-0-1.353 0-2.54 0.707-3.213 1.771l-0.009 0.016c-2.36-2.482-3.812-5.846-3.812-9.55 0-2.314 0.567-4.496 1.569-6.414l-0.036 0.077 18.602 18.709c-1.823 0.947-3.979 1.502-6.266 1.502-1.079 0-2.128-0.124-3.136-0.357l0.093 0.018zM28.893 23.22l-21.057-21.181 0.754-0.752 7.935 7.98c0.004 0 0.006 0.007 0.010 0.010l13.114 13.191-0.757 0.752z"></path>
<path fill="#2196f3" style="fill: var(--color2, #2196f3)" d="M13.876 20.267h-0.005c-0.001 0-0.002 0-0.002 0-0.884 0-1.6 0.716-1.6 1.6s0.715 1.599 1.597 1.6h0.005c0.001 0 0.001 0 0.002 0 0.884 0 1.6-0.716 1.6-1.6s-0.715-1.599-1.598-1.6h-0zM14.249 22.245c-0.096 0.096-0.229 0.155-0.376 0.155-0.295 0-0.534-0.239-0.534-0.534s0.238-0.533 0.532-0.533h0c0.293 0.001 0.531 0.239 0.531 0.533 0 0.148-0.060 0.282-0.157 0.378l-0 0h0.005z"></path>
</symbol>
<symbol id="icon-astronaut" viewBox="0 0 32 32">
<path fill="#2196f3" style="fill: var(--color2, #2196f3)" d="M31.974 4.524c-0.064-0.191-0.227-0.332-0.427-0.362l-0.003-0-1.911-0.278-0.855-1.731c-0.179-0.365-0.777-0.365-0.956 0l-0.855 1.731-1.911 0.278c-0.26 0.039-0.457 0.26-0.457 0.528 0 0.15 0.062 0.285 0.161 0.382l1.383 1.348-0.326 1.903c-0.034 0.2 0.048 0.402 0.212 0.522 0.166 0.12 0.383 0.135 0.562 0.040l1.709-0.899 1.709 0.899c0.072 0.038 0.157 0.061 0.247 0.061 0.295 0 0.534-0.239 0.534-0.534 0-0.031-0.003-0.062-0.008-0.092l0 0.003-0.326-1.903 1.383-1.348c0.099-0.097 0.161-0.233 0.161-0.382 0-0.059-0.009-0.115-0.027-0.168l0.001 0.004zM29.511 5.851c-0.126 0.122-0.183 0.299-0.153 0.472l0.191 1.114-1-0.526c-0.072-0.039-0.158-0.062-0.249-0.062s-0.177 0.023-0.252 0.063l0.003-0.001-1 0.526 0.191-1.114c0.005-0.027 0.008-0.059 0.008-0.091 0-0.149-0.061-0.285-0.16-0.381l-0-0-0.811-0.79 1.119-0.162c0.174-0.025 0.324-0.134 0.402-0.292l0.5-1.013 0.5 1.013c0.078 0.158 0.228 0.267 0.402 0.292l1.119 0.162-0.809 0.79zM26.134 20.522h-1.067v1.067h1.067v-1.067zM26.134 22.656h-1.067v1.066h1.067v-1.066zM27.2 21.589h-1.067v1.067h1.067v-1.067zM25.067 21.589h-1.067v1.067h1.067v-1.067zM22.4 26.389h-1.067v1.067h1.067v-1.067zM22.4 28.523h-1.067v1.067h1.067v-1.067zM23.467 27.456h-1.067v1.067h1.067v-1.067zM21.334 27.456h-1.067v1.067h1.067v-1.067zM16 24.256h-1.066v1.067h1.066v-1.067zM16 26.389h-1.066v1.067h1.066v-1.067zM17.067 25.322h-1.067v1.067h1.067v-1.067zM14.934 25.322h-1.067v1.067h1.067v-1.067zM5.867 6.122h-1.066v1.066h1.066v-1.066zM5.867 8.256h-1.066v1.066h1.066v-1.066zM6.933 7.189h-1.067v1.067h1.066v-1.067zM4.8 7.189h-1.067v1.067h1.067v-1.067z"></path>
<path fill="#212121" style="fill: var(--color1, #212121)" d="M24.715 14.16c-0.28-0.376-0.698-0.636-1.179-0.703l-0.009-0.001c-0.076-0.012-0.164-0.018-0.254-0.018-0.411 0-0.789 0.139-1.090 0.373l0.004-0.003-1.253 0.96-1.898 1.417-1.358-0.541c2.421-1.086 4.113-3.508 4.113-6.32 0-3.823-3.122-6.934-6.961-6.934s-6.961 3.11-6.961 6.934c0 1.386 0.415 2.674 1.12 3.759l-2.768-0.024c-0.009 0-0.016 0.005-0.023 0.005-0.057 0.003-0.11 0.014-0.159 0.033l0.004-0.001c-0.013 0.005-0.026 0.007-0.038 0.013-0.006 0.003-0.013 0.003-0.019 0.006l-3.233 1.596c-0 0-0.001 0-0.001 0.001l-1.893 0.91c-0.024 0.011-0.045 0.023-0.065 0.036l0.001-0.001c-0.482 0.324-0.795 0.867-0.795 1.483 0 0.297 0.073 0.577 0.201 0.823l-0.005-0.010c0.22 0.424 0.592 0.742 1.043 0.885l0.013 0.003c0.161 0.053 0.345 0.083 0.537 0.083 0.308 0 0.598-0.078 0.851-0.216l-0.009 0.005 1.388-0.738 2.264-1.169 1.357-0.008-5.442 5.415c0 0.001-0.001 0.001-0.001 0.001l-1.339 1.333c-0.303 0.299-0.491 0.714-0.491 1.173 0 0.002 0 0.003 0 0.005v-0c0.002 0.919 0.748 1.664 1.667 1.664 0.001 0 0.002 0 0.002 0h-0c0.428 0 0.854-0.162 1.18-0.485l1.314-1.309 1.741-1.3 0.901 0.897-3.102 3.088c-0.303 0.299-0.491 0.714-0.491 1.173 0 0.001 0 0.003 0 0.004v-0c0 0.445 0.174 0.864 0.49 1.179 0.302 0.3 0.717 0.485 1.176 0.485 0.001 0 0.002 0 0.003 0h-0c0.427 0 0.855-0.162 1.18-0.485l4.488-4.472c0.007-0.006 0.016-0.009 0.022-0.016l5.166-5.658 3.471 0.494c0.025 0.004 0.050 0.006 0.075 0.006 0.064 0 0.127-0.016 0.187-0.038 0.017-0.006 0.032-0.015 0.049-0.023 0.019-0.010 0.039-0.015 0.058-0.027l3.213-2.133c0.012-0.008 0.018-0.021 0.029-0.030 0.013-0.010 0.029-0.014 0.041-0.026l1.271-1.191c0.348-0.326 0.564-0.787 0.564-1.3 0-0.4-0.132-0.769-0.355-1.066l0.003 0.005zM2.13 17.77c-0.098 0.054-0.215 0.086-0.34 0.086-0.078 0-0.153-0.013-0.224-0.036l0.005 0.001c-0.294-0.093-0.504-0.364-0.504-0.683 0-0.235 0.114-0.444 0.289-0.575l0.002-0.001 1.314-0.632 0.316 0.924 0.133 0.389-0.992 0.527zM5.627 15.942l-1.548 0.8-0.255-0.746-0.184-0.537 2.027-1.001-0.040 1.484zM20.727 9.322c0 0.918-0.219 1.785-0.599 2.56l-4.181-1.899c-0.044-0.575-0.342-1.072-0.782-1.384l-0.006-0.004 1.464-4.861c2.377 0.757 4.104 2.975 4.104 5.588zM8.938 9.322c0-3.235 2.644-5.867 5.894-5.867 0.253 0 0.5 0.022 0.745 0.053l-1.432 4.753c-0.019 0-0.037-0.006-0.057-0.006-0 0-0.001 0-0.001 0-1.032 0-1.869 0.835-1.872 1.867v0c0.003 1.031 0.84 1.867 1.872 1.867 0 0 0 0 0.001 0h-0c0.695 0 1.295-0.383 1.618-0.944l3.863 1.755c-1.075 1.447-2.795 2.39-4.737 2.39-3.25 0-5.894-2.632-5.894-5.867zM14.895 10.122c0 0.441-0.362 0.8-0.806 0.8-0 0-0.001 0-0.001 0-0.443 0-0.802-0.358-0.804-0.8v-0c0-0.441 0.361-0.8 0.806-0.8s0.806 0.359 0.806 0.8zM2.464 25.146c-0.11 0.109-0.261 0.176-0.428 0.176s-0.317-0.067-0.427-0.175l0 0c-0.109-0.108-0.176-0.257-0.176-0.422s0.067-0.314 0.176-0.422l0-0 0.962-0.959 0.852 0.848-0.959 0.954zM5.678 28.88c-0.11 0.109-0.261 0.176-0.428 0.176s-0.317-0.067-0.427-0.175l0 0c-0.109-0.108-0.176-0.257-0.176-0.422s0.067-0.314 0.176-0.422l0-0 0.963-0.959 0.852 0.848-0.96 0.955zM9.16 25.411l-0.001 0.001-1.765 1.76-0.852-0.848 1.765-1.757c0.040-0.040 0.065-0.088 0.090-0.136 0.007-0.014 0.020-0.026 0.026-0.040 0.016-0.041 0.019-0.085 0.026-0.128 0.003-0.025 0.014-0.048 0.014-0.073 0-0.035-0.013-0.070-0.020-0.105-0.006-0.032-0.006-0.064-0.019-0.096-0.025-0.053-0.055-0.098-0.092-0.138l0 0c-0.010-0.012-0.014-0.026-0.025-0.038h-0.001s0-0.001-0.001-0.002l-1.607-1.6c-0.017-0.017-0.039-0.024-0.058-0.038-0.025-0.021-0.054-0.040-0.084-0.056l-0.003-0.001c-0.026-0.012-0.058-0.023-0.090-0.031l-0.003-0.001c-0.030-0.009-0.065-0.017-0.101-0.020l-0.002-0c-0.007-0-0.015-0-0.023-0-0.026 0-0.051 0.002-0.075 0.005l0.003-0c-0.036 0.005-0.069 0.009-0.104 0.021s-0.064 0.027-0.094 0.045c-0.020 0.011-0.043 0.015-0.061 0.029l-1.774 1.324-0.901-0.897 2.399-2.386 4.36 4.289-0.928 0.919zM15.979 18.394c-0.016-0.002-0.030 0.004-0.046 0.003-0.008-0-0.017-0.001-0.027-0.001-0.031 0-0.062 0.003-0.092 0.008l0.003-0c-0.070 0.011-0.132 0.035-0.187 0.070l0.002-0.001c-0.030 0.018-0.057 0.037-0.083 0.061-0.013 0.011-0.028 0.016-0.040 0.029l-4.698 5.146-4.328-4.256 2.833-2.818c0.096-0.097 0.156-0.23 0.156-0.377 0-0.295-0.239-0.534-0.534-0.534-0.001 0-0.001 0-0.002 0h0l-2.219 0.013 0.028-1.607 3.104 0.027c1.264 1.297 3.027 2.101 4.978 2.101 0.001 0 0.002 0 0.003 0h-0c0.438 0 0.864-0.046 1.28-0.122 0.040 0.032 0.080 0.064 0.129 0.085l2.41 0.96 0.152 0.758 0.178 0.886-3.003-0.427zM20.020 18.572l-0.313-1.558 1.446-1.080 0.946 1.257-2.080 1.381zM23.773 15.741l-0.837 0.785-0.931-1.236 0.831-0.637c0.155-0.119 0.351-0.168 0.543-0.143 0.193 0.027 0.364 0.128 0.48 0.284 0.088 0.117 0.141 0.265 0.141 0.426 0 0.206-0.087 0.391-0.226 0.521l-0 0z"></path>
<path fill="#212121" style="fill: var(--color1, #212121)" d="M13.602 18.544l-2.143-2.134c-0.096-0.096-0.229-0.155-0.376-0.155s-0.28 0.059-0.376 0.155l-2.143 2.133c-0.097 0.097-0.156 0.23-0.156 0.378s0.060 0.281 0.156 0.378l-0-0 2.142 2.134c0.096 0.096 0.229 0.156 0.376 0.156s0.28-0.059 0.376-0.156v0l2.143-2.134c0.097-0.097 0.157-0.23 0.157-0.378s-0.060-0.281-0.157-0.378l-0-0zM11.083 20.303l-1.387-1.381 1.386-1.381 1.387 1.381-1.387 1.381zM17.164 5.071l-0.258 1.036c0.071 0.018 1.738 0.452 1.738 2.149h1.067c0-2.017-1.666-2.965-2.547-3.184zM19.711 9.322h-1.067v1.066h1.067v-1.066z"></path>
</symbol>
<symbol id="icon-clock" viewBox="0 0 31 32">
<path fill="#212121" style="fill: var(--color1, #212121)" d="M29.317 13.732c-0.001-7.585-6.152-13.733-13.738-13.732s-13.733 6.152-13.732 13.738c0.002 6.092 3.969 11.256 9.46 13.053l0.097 0.027c0.055 0.017 0.111 0.026 0.168 0.026 0.108 0 0.214-0.029 0.307-0.084 0.121-0.072 0.212-0.186 0.254-0.32l3.468-10.994c0.945-0.003 1.711-0.771 1.711-1.716 0-0.948-0.768-1.716-1.716-1.716-0.272 0-0.529 0.063-0.758 0.176l0.010-0.005-4.582-4.583c-0.103-0.099-0.243-0.16-0.397-0.16-0.316 0-0.572 0.256-0.572 0.572 0 0.154 0.061 0.295 0.161 0.398l-0-0 4.58 4.585c-0.108 0.216-0.172 0.471-0.172 0.741 0 0.54 0.254 1.020 0.649 1.329l0.004 0.003-3.305 10.476c-6.531-2.406-9.876-9.651-7.47-16.183s9.651-9.876 16.183-7.47c6.531 2.406 9.876 9.651 7.47 16.182-1.207 3.214-3.593 5.749-6.618 7.124l-0.079 0.032-0.357-1.682c-0.056-0.261-0.285-0.454-0.56-0.454-0.147 0-0.281 0.055-0.382 0.146l0.001-0-3.443 3.074c-0.118 0.105-0.192 0.258-0.192 0.428 0 0.254 0.166 0.47 0.395 0.544l0.004 0.001 4.396 1.403c0.052 0.018 0.113 0.028 0.176 0.028 0.316 0 0.572-0.256 0.572-0.572 0-0.042-0.005-0.084-0.013-0.124l0.001 0.004-0.351-1.65c4.961-2.131 8.372-6.975 8.372-12.615 0-0.010 0-0.021-0-0.031v0.002zM15.583 13.16c0.316 0 0.572 0.256 0.572 0.572s-0.256 0.572-0.572 0.572v0c-0.316 0-0.572-0.256-0.572-0.572s0.256-0.572 0.572-0.572v0zM17.468 26.499l1.96-1.748 0.541 2.549-2.501-0.8z"></path>
<path fill="#2196f3" style="fill: var(--color2, #2196f3)" d="M15.010 2.858v1.145c0 0.316 0.256 0.572 0.572 0.572s0.572-0.256 0.572-0.572v0-1.145c0-0.316-0.256-0.572-0.572-0.572s-0.572 0.256-0.572 0.572v0zM4.709 13.16c-0.316 0-0.572 0.256-0.572 0.572s0.256 0.572 0.572 0.572h1.145c0.316 0 0.572-0.256 0.572-0.572s-0.256-0.572-0.572-0.572h-1.145zM26.456 14.304c0.316 0 0.572-0.256 0.572-0.572s-0.256-0.572-0.572-0.572h-1.145c-0.316 0-0.572 0.256-0.572 0.572s0.256 0.572 0.572 0.572h1.145z"></path>
</symbol>
<symbol id="icon-diagram" viewBox="0 0 32 32">
<path fill="#2196f3" style="fill: var(--color2, #2196f3)" d="M14.926 14.965h1.066v4.798h-1.066v-4.798zM19.19 17.097h1.066v2.665h-1.066v-2.665zM10.661 18.696h1.066v1.066h-1.066v-1.066zM7.463 18.163h1.066v1.599h-1.066v-1.599z"></path>
<path fill="#212121" style="fill: var(--color1, #212121)" d="M1.599 28.291h25.586c0 0 0 0 0 0 0.883 0 1.599-0.716 1.599-1.599v0-2.132c0-0.883-0.716-1.599-1.599-1.599v0h-0.533v-13.294l3.028-2.868c0.207 0.104 0.452 0.166 0.711 0.166 0.888 0 1.608-0.72 1.608-1.608s-0.72-1.608-1.608-1.608c-0.888 0-1.608 0.72-1.608 1.608 0 0.247 0.056 0.481 0.155 0.69l-0.004-0.010-2.281 2.162v-1.23c0-0.883-0.716-1.599-1.599-1.599v0h-21.323c-0.883 0-1.599 0.716-1.599 1.599v0 15.992h-0.533c-0.883 0-1.599 0.716-1.599 1.599v0 2.132c0 0.883 0.716 1.599 1.599 1.599v0zM30.384 4.837c0.294 0 0.533 0.239 0.533 0.533s-0.239 0.533-0.533 0.533v0c-0.294 0-0.533-0.239-0.533-0.533s0.239-0.533 0.533-0.533v0zM3.198 6.969c0-0.294 0.239-0.533 0.533-0.533h21.323c0.294 0 0.533 0.239 0.533 0.533v2.239l-1.066 1.013v-2.185c0-0.295-0.239-0.534-0.534-0.534h-19.189c-0.294 0-0.534 0.239-0.534 0.533v13.327c0 0.294 0.239 0.533 0.534 0.533h19.189c0.295 0 0.534-0.239 0.534-0.533v-9.675l1.066-1.010v12.283h-22.389v-15.991zM7.996 13.899c-0.001 0-0.003 0-0.005 0-0.883 0-1.599 0.716-1.599 1.599s0.716 1.599 1.599 1.599c0.432 0 0.824-0.172 1.112-0.45l-0 0 1.853 0.93c0.215 0.107 0.476 0.057 0.636-0.122l3.939-4.432 3.872 2.902c0.208 0.155 0.498 0.139 0.686-0.039l3.365-3.188v8.131h-18.123v-12.261h18.123v2.661l-3.771 3.572-3.904-2.927c-0.088-0.067-0.2-0.107-0.32-0.107-0.158 0-0.3 0.069-0.398 0.178l-0 0.001-3.993 4.493-1.493-0.746c0.011-0.064 0.017-0.128 0.020-0.193 0-0.883-0.716-1.599-1.599-1.599v0zM8.529 15.498c0 0.294-0.239 0.533-0.533 0.533s-0.533-0.239-0.533-0.533v0c0-0.294 0.239-0.533 0.533-0.533s0.533 0.239 0.533 0.533v0zM11.727 24.026h5.33v0.533c0 0.294-0.238 0.533-0.533 0.533h-4.265c-0.294 0-0.533-0.239-0.533-0.533v0-0.533zM1.067 24.56c0-0.294 0.238-0.533 0.533-0.533h9.062v0.533c0 0.883 0.716 1.599 1.599 1.599v0h4.265c0.883 0 1.599-0.716 1.599-1.599v0-0.533h9.062c0.294 0 0.533 0.239 0.533 0.533v2.132c0 0.294-0.239 0.533-0.533 0.533h-25.586c-0 0-0 0-0 0-0.294 0-0.533-0.239-0.533-0.533 0 0 0 0 0 0v0-2.132z"></path>
</symbol>
<symbol id="icon-envelope" viewBox="0 0 43 32">
<path fill="" d="M38.667 0h-34.667c-2.205 0-4 1.795-4 4v24c0 2.205 1.795 4 4 4h34.667c2.205 0 4-1.795 4-4v-24c0-2.205-1.795-4-4-4zM38.667 2.667c0.181 0 0.355 0.037 0.512 0.104l-17.845 15.467-17.845-15.467c0.151-0.065 0.327-0.104 0.512-0.104h34.667zM38.667 29.333h-34.667c-0.736 0-1.333-0.597-1.333-1.333v0-22.413l17.792 15.421c0.233 0.203 0.539 0.327 0.875 0.327s0.642-0.124 0.876-0.328l-0.002 0.001 17.792-15.421v22.413c0 0.736-0.597 1.333-1.333 1.333v0z"></path>
</symbol>
<symbol id="icon-Facebook" viewBox="0 0 32 32">
<path fill="" d="M21.328 5.312h2.923v-5.088c-1.232-0.143-2.66-0.224-4.108-0.224-0.052 0-0.104 0-0.156 0l0.008-0c-4.213 0-7.099 2.65-7.099 7.52v4.48h-4.646v5.688h4.646v14.312h5.699v-14.31h4.459l0.707-5.688h-5.168v-3.922c0-1.643 0.443-2.768 2.734-2.768z"></path>
</symbol>
<svg aria-hidden="true" style="position: absolute; width: 0; height: 0; overflow: hidden;" version="1.1" xmlns="http://www.w3.org/2000/svg" xmlns:xlink="http://www.w3.org/1999/xlink">
<defs>
<symbol id="icon-Img-Overlay-trsp" viewBox="0 0 85 32">
<path fill="#2f303a" style="fill: var(--color1, #2f303a)" opacity="0.4" d="M0 0h85.333v32h-85.333z"></path>
<path fill="#000" style="fill: var(--color2, #000)" opacity="0.2" d="M0 0h85.333v32h-85.333z"></path>
</symbol>
<svg aria-hidden="true" style="position: absolute; width: 0; height: 0; overflow: hidden;" version="1.1" xmlns="http://www.w3.org/2000/svg" xmlns:xlink="http://www.w3.org/1999/xlink">
<defs>
<symbol id="icon-customer6" viewBox="0 0 67 32">
<path fill="" d="M33.724 15.038c-0.271-0.35-0.435-0.795-0.435-1.278 0-0.048 0.002-0.095 0.005-0.142l-0 0.006v-2.050c0-0.629 0.142-1.107 0.428-1.433 0.284-0.327 0.774-0.49 1.468-0.489 0.652 0 1.116 0.139 1.389 0.417 0.299 0.355 0.444 0.789 0.411 1.227v0.481h-1.166v-0.488c0.004-0.16-0.007-0.32-0.034-0.478-0.020-0.116-0.081-0.214-0.166-0.283l-0.001-0.001c-0.105-0.070-0.234-0.112-0.372-0.112-0.018 0-0.035 0.001-0.052 0.002l0.002-0c-0.015-0.001-0.033-0.002-0.050-0.002-0.147 0-0.283 0.044-0.397 0.12l0.003-0.002c-0.096 0.077-0.166 0.185-0.193 0.309l-0.001 0.004c-0.030 0.14-0.047 0.302-0.047 0.467 0 0.014 0 0.028 0 0.042l-0-0.002v2.488c-0.019 0.24 0.033 0.48 0.149 0.698 0.061 0.075 0.139 0.133 0.23 0.168l0.004 0.001c0.069 0.028 0.149 0.044 0.232 0.044 0.024 0 0.049-0.001 0.072-0.004l-0.003 0c0.014 0.001 0.031 0.002 0.048 0.002 0.136 0 0.263-0.043 0.366-0.116l-0.002 0.001c0.090-0.075 0.153-0.18 0.174-0.299l0-0.003c0.027-0.165 0.040-0.332 0.036-0.498v-0.505h1.167v0.461c0.003 0.036 0.004 0.079 0.004 0.122 0 0.443-0.153 0.85-0.41 1.171l0.003-0.004c-0.268 0.304-0.725 0.457-1.397 0.457s-1.179-0.163-1.466-0.501zM38.583 15.059c-0.295-0.32-0.442-0.784-0.442-1.399v-2.157c0-0.609 0.147-1.070 0.442-1.383s0.787-0.469 1.478-0.467c0.686 0 1.176 0.156 1.471 0.467 0.294 0.313 0.444 0.774 0.444 1.383v2.157c0 0.609-0.149 1.076-0.449 1.397s-0.787 0.481-1.466 0.481-1.181-0.163-1.479-0.479zM40.604 14.541c0.106-0.199 0.154-0.419 0.14-0.638v-2.64c0.001-0.021 0.002-0.046 0.002-0.071 0-0.203-0.052-0.394-0.142-0.561l0.003 0.006c-0.062-0.077-0.142-0.136-0.234-0.171l-0.004-0.001c-0.068-0.027-0.146-0.042-0.229-0.042-0.028 0-0.056 0.002-0.083 0.005l0.003-0c-0.023-0.003-0.050-0.005-0.078-0.005-0.083 0-0.162 0.016-0.236 0.044l0.004-0.002c-0.096 0.036-0.177 0.095-0.239 0.17l-0.001 0.001c-0.107 0.196-0.154 0.411-0.14 0.626v2.653c-0.014 0.22 0.033 0.439 0.14 0.639 0.068 0.068 0.152 0.121 0.246 0.158 0.089 0.036 0.192 0.057 0.3 0.057s0.211-0.021 0.305-0.059l-0.006 0.002c0.095-0.037 0.178-0.091 0.246-0.158v-0.013zM43.381 9.716h1.256l0.944 3.979 0.967-3.979h1.222l0.124 5.743h-0.904l-0.097-3.991-0.932 3.991h-0.725l-0.966-4.006-0.090 4.006h-0.913l0.114-5.743zM49.301 9.716h1.957c1.127 0 1.691 0.543 1.691 1.631 0 1.042-0.594 1.562-1.781 1.56h-0.666v2.553h-1.208l0.007-5.744zM50.973 12.17c0.119 0.014 0.24 0.004 0.356-0.027 0.114-0.031 0.22-0.084 0.309-0.154 0.139-0.193 0.2-0.422 0.174-0.649 0.001-0.019 0.001-0.041 0.001-0.063 0-0.163-0.022-0.321-0.062-0.471l0.003 0.013c-0.019-0.061-0.050-0.114-0.089-0.158l0 0c-0.042-0.047-0.093-0.086-0.149-0.114l-0.003-0.001c-0.141-0.059-0.304-0.094-0.476-0.094-0.022 0-0.044 0.001-0.066 0.002l0.003-0h-0.469v1.717h0.469zM54.692 9.716h1.297l1.331 5.743h-1.126l-0.263-1.324h-1.157l-0.27 1.324h-1.143l1.331-5.743zM55.8 13.47l-0.452-2.411-0.452 2.411h0.903zM58.394 9.716h0.846l1.618 3.276v-3.276h1.003v5.743h-0.804l-1.628-3.42v3.42h-1.036l0.002-5.743zM64.209 13.269l-1.345-3.546h1.133l0.821 2.278 0.77-2.278h1.109l-1.329 3.546v2.19h-1.159v-2.19zM35.59 17.97v0.301h-0.986v2.334h-0.413v-2.334h-0.991v-0.3h2.389zM38.679 20.604h-0.319c-0.003 0-0.006 0-0.009 0-0.030 0-0.058-0.009-0.081-0.025l0 0c-0.023-0.015-0.041-0.035-0.052-0.060l-0-0.001-0.285-0.626h-1.367l-0.284 0.626c-0.009 0.028-0.024 0.052-0.044 0.071l-0 0c-0.023 0.016-0.051 0.025-0.082 0.025-0.003 0-0.005-0-0.008-0l0 0h-0.319l1.208-2.634h0.42l1.223 2.624zM36.679 19.627h1.14l-0.484-1.072c-0.031-0.067-0.061-0.15-0.086-0.235l-0.003-0.014c-0.017 0.050-0.031 0.098-0.045 0.14l-0.044 0.11-0.478 1.070zM40.762 20.346c0.076 0.004 0.151 0.004 0.228 0 0.065-0.006 0.129-0.016 0.193-0.031 0.059-0.012 0.117-0.028 0.174-0.048 0.053-0.018 0.107-0.042 0.161-0.064v-0.593h-0.483c-0.002 0-0.004 0-0.006 0-0.011 0-0.021-0.002-0.030-0.005l0.001 0c-0.011-0.004-0.021-0.009-0.030-0.016l0 0c-0.008-0.006-0.014-0.013-0.018-0.021l-0-0c-0.004-0.007-0.006-0.015-0.006-0.024 0-0.001 0-0.002 0-0.003v0-0.202h0.937v1.010c-0.146 0.092-0.316 0.165-0.496 0.212l-0.013 0.003c-0.1 0.025-0.2 0.043-0.302 0.054-0.104 0.010-0.224 0.016-0.346 0.016-0.002 0-0.005 0-0.007 0h0c-0.004 0-0.010 0-0.015 0-0.213 0-0.417-0.036-0.607-0.102l0.013 0.004c-0.186-0.065-0.347-0.158-0.486-0.277l0.002 0.002c-0.129-0.114-0.234-0.253-0.308-0.409l-0.003-0.008c-0.070-0.156-0.111-0.338-0.111-0.529 0-0.006 0-0.012 0-0.019v0.001c-0-0.005-0-0.010-0-0.016 0-0.193 0.040-0.377 0.112-0.543l-0.003 0.009c0.069-0.156 0.176-0.299 0.311-0.417 0.138-0.119 0.302-0.211 0.484-0.273 0.206-0.068 0.427-0.1 0.647-0.098 0.112 0 0.225 0.007 0.336 0.023 0.098 0.014 0.195 0.036 0.287 0.067 0.085 0.028 0.166 0.063 0.242 0.105 0.074 0.041 0.144 0.087 0.211 0.137l-0.116 0.164c-0.010 0.015-0.023 0.027-0.039 0.035l-0.001 0c-0.016 0.009-0.035 0.014-0.055 0.014h-0c-0.028-0.001-0.053-0.009-0.075-0.022l0.001 0c-0.049-0.023-0.088-0.044-0.126-0.066l0.007 0.004c-0.045-0.025-0.099-0.049-0.154-0.069l-0.008-0.002c-0.062-0.022-0.136-0.043-0.213-0.057l-0.009-0.001c-0.087-0.015-0.188-0.023-0.29-0.023-0.006 0-0.012 0-0.017 0h0.001c-0.004-0-0.010-0-0.015-0-0.161 0-0.317 0.027-0.462 0.076l0.010-0.003c-0.134 0.046-0.256 0.117-0.356 0.208-0.095 0.090-0.171 0.199-0.222 0.321l-0.002 0.006c-0.051 0.13-0.081 0.281-0.081 0.439s0.030 0.309 0.084 0.448l-0.003-0.008c0.053 0.124 0.135 0.236 0.242 0.331 0.099 0.090 0.219 0.161 0.352 0.208 0.154 0.046 0.316 0.064 0.479 0.052zM44.612 20.304h1.319v0.3h-1.722v-2.634h0.412l-0.009 2.334zM47.303 20.604h-0.412v-2.634h0.412v2.634zM48.84 17.983c0.025 0.012 0.046 0.028 0.063 0.048l1.766 1.985c-0.001-0.014-0.002-0.030-0.002-0.047s0.001-0.033 0.002-0.049l-0 0.002v-1.963h0.36v2.645h-0.208c-0.004 0-0.009 0-0.013 0-0.028 0-0.054-0.006-0.077-0.016l0.001 0c-0.025-0.013-0.046-0.030-0.065-0.050l-0-0-1.764-1.984v2.048h-0.346v-2.634h0.215c0.023 0 0.047 0.004 0.068 0.012zM54.070 17.97v0.29h-1.463v0.87h1.186v0.279h-1.186v0.9h1.463v0.289h-1.889v-2.628h1.889zM10.782 1.703l18.343 4.496v15.757l-18.343-4.494v-15.759zM9.605 0.359v17.868l20.693 5.075v-17.865l-20.693-5.077z"></path>
<path fill="" d="M20.696 31.595l-20.696-5.078v-17.866l20.696 5.077v17.867z"></path>
<path fill="" d="M9.948 1.5l18.103 4.44-7.698 6.649-18.107-4.442 7.702-6.647zM9.605 0.36l-9.605 8.292 20.696 5.077 9.603-8.294-20.693-5.075zM21.86 30.591l8.439-7.287-8.439-2.071v9.358z"></path>
</symbol>
<symbol id="icon-customer1" viewBox="0 0 28 32">
<path fill="" d="M4.085 0l4.771 4.517-8.857-0.005v21.915h23.149v-8.379l4.766 4.512v-22.559h-23.83zM22.939 17.517l-13.528-12.807h13.528v12.807zM18.739 23.22h-15.076v-14.738h1.066v13.74h14.011v0.997zM7.224 29.345l-0.557 1.147-0.557-1.147h-0.467l0.813 1.529v0.891h0.422v-0.891l0.811-1.529h-0.465zM7.924 31.765l0.196-0.564h0.938l0.197 0.564h0.439l-0.916-2.42h-0.378l-0.914 2.42h0.437zM8.588 29.859l0.351 1.004h-0.701l0.351-1.004zM10.806 30.804c-0.057 0.085-0.091 0.19-0.091 0.303 0 0.001 0 0.003 0 0.004v-0c0 0.204 0.072 0.37 0.214 0.497s0.336 0.19 0.575 0.19c0.239 0 0.445-0.065 0.618-0.195l0.136 0.161h0.468l-0.355-0.421c0.14-0.191 0.209-0.435 0.209-0.733h-0.351c0 0.163-0.034 0.311-0.101 0.444l-0.468-0.552 0.165-0.12c0.1-0.068 0.184-0.152 0.249-0.249l0.002-0.003c0.048-0.079 0.076-0.174 0.076-0.275 0-0.001 0-0.003-0-0.004v0c0-0.003 0-0.006 0-0.009 0-0.149-0.065-0.283-0.169-0.374l-0.001-0c-0.108-0.097-0.251-0.157-0.408-0.157-0.008 0-0.017 0-0.025 0l0.001-0c-0.195 0-0.35 0.056-0.465 0.166s-0.173 0.259-0.173 0.449c0 0.078 0.018 0.157 0.054 0.241 0.038 0.083 0.104 0.184 0.197 0.302-0.179 0.129-0.3 0.24-0.36 0.334zM11.898 31.34c-0.104 0.084-0.237 0.135-0.382 0.136h-0c-0.006 0-0.013 0-0.020 0-0.104 0-0.199-0.040-0.27-0.106l0 0c-0.067-0.066-0.108-0.157-0.108-0.259 0-0.005 0-0.009 0-0.014l-0 0.001c0-0.129 0.067-0.245 0.2-0.346l0.052-0.037 0.528 0.624zM11.464 30.267c-0.114-0.141-0.172-0.257-0.172-0.351 0-0.081 0.024-0.148 0.070-0.201 0.044-0.049 0.107-0.081 0.178-0.081 0.004 0 0.007 0 0.010 0l-0.001-0c0.003-0 0.006-0 0.009-0 0.067 0 0.127 0.026 0.173 0.068l-0-0c0.048 0.045 0.072 0.099 0.072 0.161 0 0.003 0 0.006 0 0.009 0 0.090-0.040 0.171-0.103 0.226l-0 0-0.052 0.041-0.184 0.127zM15.404 31.582c0.166-0.145 0.261-0.347 0.286-0.605h-0.419c-0.022 0.173-0.075 0.296-0.158 0.37s-0.208 0.112-0.372 0.112c-0.18 0-0.318-0.069-0.412-0.206s-0.14-0.337-0.14-0.599v-0.214c0.003-0.259 0.052-0.453 0.15-0.587 0.099-0.134 0.24-0.201 0.422-0.201 0.157 0 0.276 0.039 0.357 0.116s0.133 0.202 0.153 0.376h0.419c-0.027-0.265-0.121-0.47-0.285-0.615s-0.378-0.218-0.645-0.218c-0.198 0-0.373 0.048-0.525 0.142-0.152 0.097-0.271 0.234-0.345 0.396l-0.002 0.006c-0.077 0.169-0.122 0.367-0.122 0.576 0 0.010 0 0.020 0 0.030l-0-0.001v0.226c0.003 0.223 0.045 0.418 0.125 0.587s0.193 0.298 0.339 0.39c0.148 0.091 0.318 0.136 0.511 0.136 0.276 0 0.497-0.072 0.663-0.216zM17.875 31.243c0.082-0.18 0.123-0.388 0.123-0.625v-0.134c0-0.007 0-0.016 0-0.024 0-0.216-0.047-0.421-0.131-0.605l0.004 0.009c-0.077-0.171-0.199-0.31-0.35-0.406l-0.004-0.002c-0.144-0.090-0.318-0.143-0.505-0.143-0.006 0-0.013 0-0.019 0h0.001c-0.197 0-0.372 0.048-0.525 0.144-0.152 0.095-0.27 0.233-0.354 0.414-0.079 0.175-0.125 0.38-0.125 0.595 0 0.011 0 0.021 0 0.032l-0-0.002v0.136c0.001 0.232 0.043 0.436 0.126 0.613 0.084 0.178 0.203 0.315 0.356 0.411 0.154 0.095 0.329 0.143 0.525 0.143 0.199 0 0.374-0.048 0.526-0.143 0.152-0.097 0.27-0.234 0.352-0.413zM17.425 29.874c0.102 0.143 0.152 0.349 0.152 0.618v0.126c0 0.272-0.050 0.48-0.151 0.622-0.099 0.142-0.242 0.213-0.429 0.213-0.005 0-0.011 0-0.017 0-0.171 0-0.323-0.086-0.413-0.216l-0.001-0.002c-0.104-0.145-0.155-0.351-0.155-0.617v-0.14c0.002-0.26 0.054-0.462 0.156-0.603 0.091-0.13 0.24-0.215 0.409-0.215 0.006 0 0.012 0 0.018 0l-0.001-0c0.187 0 0.33 0.072 0.431 0.214z"></path>
</symbol>
<symbol id="icon-customer5" viewBox="0 0 44 32">
<path fill="" d="M3.309 26.765c0.17 0.193 0.259 0.433 0.255 0.68 0.001 0.016 0.001 0.034 0.001 0.052 0 0.152-0.034 0.296-0.095 0.425l0.003-0.006c-0.073 0.155-0.176 0.284-0.303 0.386l-0.002 0.002c-0.288 0.199-0.645 0.318-1.030 0.318-0.042 0-0.083-0.001-0.125-0.004l0.006 0h-2.020v-4.307h1.978c0.035-0.002 0.075-0.004 0.116-0.004 0.364 0 0.703 0.108 0.987 0.294l-0.007-0.004c0.128 0.097 0.23 0.222 0.296 0.362s0.097 0.292 0.088 0.444c0.011 0.238-0.070 0.472-0.23 0.659-0.154 0.171-0.366 0.29-0.602 0.337 0.268 0.045 0.51 0.175 0.682 0.369zM0.939 26.115h0.846c0.192 0.013 0.383-0.038 0.538-0.143 0.061-0.051 0.11-0.115 0.143-0.188l0.001-0.003c0.025-0.056 0.039-0.12 0.039-0.189 0-0.014-0.001-0.029-0.002-0.043l0 0.002c0.001-0.011 0.001-0.024 0.001-0.036 0-0.070-0.015-0.136-0.041-0.196l0.001 0.003c-0.033-0.076-0.081-0.14-0.141-0.191l-0.001-0.001c-0.137-0.093-0.305-0.148-0.486-0.148-0.024 0-0.047 0.001-0.070 0.003l0.003-0h-0.832v1.13zM2.406 27.766c0.066-0.052 0.119-0.118 0.154-0.194l0.001-0.003c0.028-0.060 0.045-0.131 0.045-0.206 0-0.012-0-0.024-0.001-0.036l0 0.002c0.001-0.009 0.001-0.020 0.001-0.031 0-0.077-0.017-0.15-0.048-0.215l0.001 0.003c-0.038-0.080-0.092-0.146-0.157-0.198l-0.001-0.001c-0.146-0.099-0.325-0.158-0.518-0.158-0.020 0-0.039 0.001-0.059 0.002l0.003-0h-0.886v1.185h0.899c0.202 0.010 0.402-0.042 0.568-0.15zM7.353 28.616l-1.1-1.683h-0.414v1.683h-0.947v-4.307h1.793c0.038-0.003 0.083-0.004 0.128-0.004 0.422 0 0.811 0.139 1.124 0.374l-0.005-0.003c0.25 0.234 0.402 0.542 0.426 0.868 0.002 0.027 0.003 0.059 0.003 0.090 0 0.314-0.112 0.602-0.298 0.826l0.002-0.002c-0.222 0.229-0.517 0.387-0.847 0.437l-0.008 0.001 1.172 1.721h-1.030zM5.839 26.346h0.774c0.538 0 0.807-0.217 0.807-0.652 0.001-0.010 0.001-0.023 0.001-0.035 0-0.082-0.016-0.159-0.046-0.23l0.001 0.004c-0.037-0.087-0.089-0.162-0.153-0.222l-0-0c-0.147-0.111-0.333-0.178-0.535-0.178-0.026 0-0.052 0.001-0.078 0.003l0.003-0h-0.783l0.009 1.311zM12.529 27.75h-1.887l-0.333 0.867h-0.993l1.732-4.259h1.073l1.726 4.259h-0.992l-0.326-0.867zM12.276 27.097l-0.689-1.818-0.689 1.818h1.379zM19.007 28.616h-0.939l-2.108-2.929v2.929h-0.938v-4.307h0.938l2.108 2.945v-2.945h0.939v4.307zM24.371 27.585c-0.195 0.325-0.49 0.59-0.851 0.76-0.365 0.172-0.793 0.272-1.245 0.272-0.027 0-0.054-0-0.081-0.001l0.004 0h-1.672v-4.307h1.673c0.023-0.001 0.051-0.001 0.079-0.001 0.45 0 0.878 0.098 1.262 0.273l-0.019-0.008c0.36 0.167 0.656 0.429 0.85 0.751 0.193 0.351 0.294 0.737 0.294 1.13s-0.101 0.779-0.294 1.13zM23.295 27.482c0.268-0.287 0.415-0.651 0.415-1.028-0.003-0.399-0.16-0.761-0.416-1.028l0.001 0.001c-0.291-0.231-0.664-0.37-1.070-0.37-0.038 0-0.075 0.001-0.112 0.004l0.005-0h-0.653v2.788h0.653c0.032 0.002 0.070 0.003 0.108 0.003 0.405 0 0.777-0.139 1.072-0.372l-0.004 0.003zM13.117 0.352s12.131 4.193 11.874 10.262v10.264s-12.122-4.195-11.87-10.264l-0.004-10.262zM35.798 18.474c2.291-1.443 4.941-2.337 7.708-2.6v-3.213c-3.187 1.125-5.892 3.165-7.708 5.814z"></path>
<path fill="" d="M34.422 19.443c1.875-3.457 5.126-6.125 9.084-7.455v-9.258s-17.277 5.974-16.911 14.616v14.612s0.77-0.267 1.981-0.768c0-0.467 0-0.938 0.056-1.412 0.357-4.011 2.44-7.729 5.791-10.335z"></path>
<path fill="" d="M32.779 24.871c0.102-1.105 0.315-2.121 0.632-3.090l-0.028 0.099c-2.087 2.25-3.35 5.043-3.613 7.985-0.026 0.278-0.040 0.555-0.046 0.842 1.441-0.631 2.532-1.167 3.601-1.74l-0.278 0.136c-0.306-1.392-0.397-2.817-0.269-4.232zM33.466 24.924c-0.034 0.355-0.053 0.768-0.053 1.186 0 0.936 0.097 1.85 0.282 2.732l-0.015-0.086c4.72-2.586 10.024-6.582 9.819-11.411v-0.421c-3.373 0.346-6.527 1.695-8.981 3.842-0.541 1.216-0.915 2.626-1.048 4.106l-0.004 0.052z"></path>
</symbol>
<symbol id="icon-customer4" viewBox="0 0 65 32">
<path fill="" d="M10.016 9.784h-0.002c-1.827 0-3.308 1.316-3.308 2.94v0.002c0 1.624 1.481 2.94 3.308 2.94h0.002c1.827 0 3.308-1.317 3.308-2.94v-0.002c0-1.624-1.481-2.941-3.308-2.941zM34.434 8.844c-0.005-2.255-1.016-4.417-2.81-6.011s-4.226-2.493-6.763-2.498c-2.539 0.004-4.972 0.902-6.767 2.497s-2.806 3.758-2.811 6.013v12.437s19.15-1.896 19.152-12.434v-0.002zM0 25.363c0.005 1.57 0.709 3.073 1.957 4.183s2.94 1.735 4.706 1.739c1.765-0.005 3.457-0.629 4.706-1.739s1.952-2.613 1.957-4.181v-8.653s-13.324 1.319-13.324 8.651zM6.662 26.914c-0.345 0-0.682-0.091-0.969-0.261-0.279-0.164-0.5-0.402-0.638-0.687l-0.004-0.010c-0.084-0.174-0.132-0.377-0.132-0.592 0-0.107 0.012-0.212 0.035-0.312l-0.002 0.009c0.067-0.301 0.233-0.578 0.477-0.794s0.555-0.365 0.893-0.424c0.102-0.019 0.22-0.030 0.34-0.030 0.24 0 0.47 0.043 0.682 0.123l-0.013-0.004c0.319 0.117 0.592 0.315 0.783 0.571s0.294 0.555 0.294 0.861c0 0.001 0 0.003 0 0.004 0 0.215-0.048 0.418-0.135 0.6l0.004-0.009c-0.094 0.198-0.221 0.366-0.376 0.504l-0.002 0.001c-0.162 0.145-0.354 0.259-0.567 0.338-0.198 0.075-0.427 0.118-0.666 0.118-0.001 0-0.002 0-0.003 0h0v-0.005zM20.128 26.059h-1.286v1.328h-0.67v-3.25h2.117v0.542h-1.447v0.84h1.286v0.54zM23.346 25.836c0 0.32-0.056 0.6-0.169 0.841s-0.276 0.427-0.488 0.558c-0.199 0.124-0.44 0.197-0.698 0.197-0.008 0-0.017-0-0.025-0l0.001 0c-0.27 0-0.51-0.065-0.722-0.194-0.213-0.134-0.382-0.322-0.487-0.546l-0.003-0.008c-0.112-0.236-0.177-0.512-0.177-0.804 0-0.009 0-0.019 0-0.028l-0 0.001v-0.16c0-0.32 0.058-0.602 0.172-0.844 0.116-0.244 0.279-0.43 0.489-0.56 0.211-0.131 0.452-0.197 0.723-0.197s0.51 0.066 0.721 0.197c0.211 0.13 0.374 0.316 0.489 0.56 0.116 0.242 0.174 0.523 0.174 0.841v0.145zM22.668 25.689c0-0.341-0.061-0.6-0.183-0.777-0.108-0.162-0.29-0.266-0.497-0.266-0.009 0-0.018 0-0.027 0.001l0.001-0c-0.008-0-0.016-0.001-0.025-0.001-0.205 0-0.387 0.104-0.494 0.262l-0.001 0.002c-0.122 0.174-0.184 0.43-0.185 0.768v0.158c0 0.332 0.061 0.589 0.183 0.773s0.297 0.274 0.527 0.274c0.008 0 0.017 0.001 0.026 0.001 0.205 0 0.385-0.104 0.491-0.262l0.001-0.002c0.12-0.177 0.181-0.434 0.183-0.772v-0.158zM25.518 26.535c0-0.006 0.001-0.013 0.001-0.020 0-0.11-0.052-0.208-0.133-0.27l-0.001-0.001c-0.089-0.069-0.25-0.139-0.482-0.214-0.214-0.067-0.396-0.142-0.57-0.232l0.019 0.009c-0.37-0.2-0.554-0.468-0.554-0.806 0-0.175 0.049-0.331 0.147-0.469 0.1-0.139 0.242-0.246 0.427-0.324 0.186-0.077 0.395-0.116 0.625-0.116 0.232 0 0.439 0.042 0.621 0.127 0.181 0.084 0.322 0.201 0.421 0.355 0.101 0.152 0.152 0.328 0.152 0.522h-0.67c0-0.149-0.046-0.264-0.14-0.346-0.094-0.084-0.226-0.125-0.395-0.125-0.164 0-0.291 0.035-0.382 0.105-0.083 0.060-0.136 0.156-0.136 0.265 0 0.003 0 0.005 0 0.008v-0c0 0.106 0.053 0.194 0.158 0.266 0.107 0.072 0.264 0.138 0.471 0.2 0.381 0.114 0.658 0.257 0.833 0.427s0.261 0.381 0.261 0.634c0 0.282-0.107 0.503-0.32 0.663s-0.498 0.239-0.859 0.239c-0.25 0-0.478-0.046-0.683-0.137-0.193-0.082-0.352-0.211-0.469-0.373l-0.002-0.003c-0.1-0.15-0.16-0.335-0.16-0.533 0-0.007 0-0.014 0-0.022l-0 0.001h0.671c0 0.359 0.214 0.538 0.643 0.538 0.159 0 0.283-0.032 0.373-0.096 0.081-0.058 0.134-0.153 0.134-0.259 0-0.004-0-0.009-0-0.013l0 0.001zM29.092 24.68h-0.995v2.708h-0.67v-2.708h-0.981v-0.542h2.647v0.542zM31.431 25.979h-1.285v0.871h1.509v0.538h-2.178v-3.25h2.174v0.542h-1.505v0.775h1.286v0.524zM33.25 26.198h-0.533v1.189h-0.67v-3.25h1.208c0.384 0 0.68 0.086 0.888 0.257s0.312 0.413 0.312 0.725c0 0.222-0.048 0.408-0.145 0.556-0.108 0.156-0.255 0.277-0.429 0.35l-0.006 0.002 0.702 1.328v0.031h-0.718l-0.61-1.189zM32.717 25.656h0.541c0.168 0 0.297-0.043 0.39-0.127 0.086-0.084 0.139-0.201 0.139-0.33 0-0.009-0-0.017-0.001-0.026l0 0.001c0-0.153-0.043-0.274-0.131-0.362s-0.219-0.132-0.4-0.132h-0.538v0.975zM36.775 26.242v1.145h-0.67v-3.25h1.268c0.244 0 0.459 0.045 0.643 0.134 0.186 0.089 0.329 0.216 0.429 0.382 0.099 0.164 0.149 0.35 0.149 0.561 0 0.318-0.11 0.57-0.328 0.754-0.218 0.183-0.519 0.274-0.904 0.274h-0.587zM36.775 25.7h0.598c0.178 0 0.312-0.042 0.404-0.125 0.094-0.084 0.141-0.203 0.141-0.357 0-0.007 0.001-0.015 0.001-0.023 0-0.14-0.053-0.267-0.141-0.363l0 0c-0.094-0.099-0.223-0.149-0.389-0.152h-0.614v1.021zM41.011 25.979h-1.285v0.871h1.509v0.538h-2.178v-3.25h2.174v0.542h-1.505v0.775h1.286v0.524zM44.119 24.68h-0.996v2.708h-0.67v-2.708h-0.982v-0.542h2.648v0.542zM46.458 25.979h-1.285v0.871h1.509v0.538h-2.179v-3.25h2.174v0.542h-1.504v0.775h1.285v0.524zM48.277 26.198h-0.533v1.189h-0.67v-3.25h1.208c0.384 0 0.68 0.086 0.888 0.257s0.312 0.413 0.312 0.725c0 0.222-0.049 0.408-0.145 0.556-0.108 0.156-0.256 0.278-0.429 0.35l-0.006 0.002 0.703 1.328v0.031h-0.718l-0.61-1.189zM47.744 25.656h0.54c0.168 0 0.298-0.043 0.39-0.127 0.086-0.084 0.139-0.201 0.139-0.331 0-0.009-0-0.017-0.001-0.025l0 0.001c0-0.153-0.043-0.274-0.132-0.362-0.086-0.088-0.219-0.132-0.399-0.132h-0.538v0.975zM51.679 26.535c0-0.006 0.001-0.012 0.001-0.019 0-0.11-0.052-0.208-0.134-0.271l-0.001-0.001c-0.089-0.069-0.25-0.139-0.482-0.214-0.214-0.067-0.396-0.142-0.57-0.232l0.019 0.009c-0.37-0.2-0.554-0.468-0.554-0.806 0-0.175 0.050-0.331 0.147-0.469 0.1-0.139 0.242-0.246 0.427-0.324 0.186-0.077 0.395-0.116 0.625-0.116 0.232 0 0.439 0.042 0.621 0.127 0.181 0.084 0.322 0.201 0.421 0.355 0.101 0.152 0.152 0.328 0.152 0.522h-0.67c0-0.149-0.046-0.264-0.14-0.346-0.094-0.084-0.226-0.125-0.395-0.125-0.164 0-0.291 0.035-0.382 0.105-0.083 0.060-0.137 0.156-0.137 0.265 0 0.002 0 0.005 0 0.007v-0c0 0.106 0.053 0.194 0.159 0.266s0.264 0.138 0.471 0.2c0.381 0.114 0.658 0.257 0.833 0.427s0.261 0.381 0.261 0.634c0 0.282-0.107 0.503-0.32 0.663s-0.499 0.239-0.859 0.239c-0.25 0-0.478-0.046-0.683-0.137-0.193-0.082-0.352-0.211-0.469-0.373l-0.002-0.003c-0.1-0.15-0.16-0.335-0.16-0.533 0-0.007 0-0.014 0-0.022l-0 0.001h0.671c0 0.359 0.214 0.538 0.643 0.538 0.159 0 0.283-0.032 0.373-0.096 0.082-0.058 0.134-0.153 0.134-0.26 0-0.004-0-0.009-0-0.013l0 0.001z"></path>
</symbol>
<symbol id="icon-customer3" viewBox="0 0 34 32">
<path fill="" d="M5.643 31.116c0.025 0.001 0.048 0.010 0.065 0.026l-0-0 0.166 0.158c-0.13 0.129-0.289 0.232-0.468 0.302-0.21 0.076-0.435 0.114-0.663 0.108-0.213 0.004-0.425-0.030-0.622-0.101-0.182-0.066-0.338-0.163-0.47-0.286l0.001 0.001c-0.128-0.121-0.231-0.268-0.301-0.432l-0.003-0.008c-0.067-0.162-0.106-0.35-0.106-0.548 0-0.006 0-0.012 0-0.019v0.001c-0-0.009-0-0.019-0-0.029 0-0.388 0.168-0.737 0.436-0.977l0.001-0.001c0.142-0.124 0.312-0.222 0.498-0.286 0.205-0.069 0.423-0.104 0.642-0.101 0.012-0 0.026-0 0.040-0 0.199 0 0.39 0.034 0.568 0.096l-0.012-0.004c0.165 0.062 0.316 0.149 0.447 0.255l-0.139 0.169c-0.010 0.012-0.022 0.022-0.035 0.030l-0.001 0c-0.014 0.008-0.030 0.013-0.048 0.013-0.003 0-0.005-0-0.008-0l0 0c-0.023-0.001-0.043-0.007-0.062-0.018l0.001 0-0.074-0.046-0.104-0.057c-0.095-0.047-0.205-0.082-0.321-0.1l-0.007-0.001c-0.069-0.012-0.149-0.018-0.23-0.018-0.006 0-0.012 0-0.018 0h0.001c-0.004-0-0.010-0-0.015-0-0.16 0-0.313 0.028-0.455 0.079l0.009-0.003c-0.137 0.048-0.26 0.12-0.362 0.213-0.104 0.098-0.183 0.213-0.235 0.339-0.054 0.128-0.085 0.276-0.085 0.432 0 0.006 0 0.011 0 0.017v-0.001c-0 0.006-0 0.012-0 0.019 0 0.157 0.031 0.307 0.088 0.444l-0.003-0.008c0.051 0.125 0.13 0.239 0.231 0.338 0.095 0.091 0.213 0.163 0.345 0.209 0.136 0.049 0.281 0.074 0.427 0.072 0.085 0.002 0.17-0.004 0.254-0.014 0.211-0.022 0.4-0.106 0.55-0.234l-0.001 0.001c0.021-0.017 0.049-0.028 0.078-0.029h0zM10.441 30.318c0.003 0.191-0.035 0.382-0.112 0.562-0.074 0.172-0.18 0.317-0.311 0.435l-0.001 0.001c-0.138 0.123-0.302 0.22-0.481 0.283l-0.010 0.003c-0.189 0.064-0.406 0.101-0.632 0.101s-0.443-0.037-0.646-0.105l0.014 0.004c-0.188-0.067-0.351-0.164-0.489-0.288l0.001 0.001c-0.133-0.12-0.24-0.267-0.313-0.432l-0.003-0.008c-0.071-0.166-0.112-0.359-0.112-0.562s0.041-0.396 0.116-0.572l-0.004 0.010c0.071-0.164 0.178-0.315 0.316-0.442 0.139-0.12 0.305-0.215 0.488-0.277 0.188-0.065 0.406-0.103 0.632-0.103s0.443 0.038 0.646 0.107l-0.014-0.004c0.184 0.065 0.351 0.163 0.49 0.287 0.137 0.125 0.244 0.273 0.314 0.434 0.077 0.181 0.115 0.373 0.112 0.565zM10.005 30.318c0-0.007 0-0.015 0-0.023 0-0.154-0.029-0.301-0.082-0.436l0.003 0.008c-0.101-0.26-0.308-0.46-0.566-0.549l-0.007-0.002c-0.137-0.047-0.295-0.074-0.459-0.074s-0.322 0.027-0.469 0.077l0.010-0.003c-0.136 0.049-0.254 0.121-0.352 0.214l0.001-0c-0.097 0.092-0.174 0.205-0.223 0.331l-0.002 0.006c-0.050 0.134-0.079 0.289-0.079 0.451s0.029 0.317 0.082 0.46l-0.003-0.009c0.101 0.261 0.309 0.46 0.569 0.547l0.007 0.002c0.296 0.097 0.622 0.097 0.918 0 0.133-0.046 0.253-0.119 0.35-0.211 0.1-0.098 0.175-0.213 0.222-0.338 0.056-0.145 0.082-0.297 0.079-0.451zM13.715 30.792l0.043 0.101c0.017-0.037 0.031-0.069 0.048-0.101 0.016-0.034 0.034-0.067 0.054-0.099l1.061-1.677c0.021-0.029 0.040-0.047 0.061-0.053s0.047-0.009 0.073-0.009c0.005 0 0.010 0 0.014 0l-0.001-0h0.314v2.728h-0.372v-2.090c-0.001-0.014-0.002-0.031-0.002-0.047s0.001-0.033 0.002-0.049l-0 0.002-1.069 1.701c-0.015 0.026-0.036 0.047-0.062 0.061l-0.001 0c-0.026 0.014-0.057 0.023-0.089 0.023-0.001 0-0.001 0-0.002 0h-0.060c-0.001 0-0.002 0-0.002 0-0.033 0-0.063-0.008-0.090-0.023l0.001 0c-0.026-0.014-0.047-0.035-0.061-0.061l-0-0.001-1.099-1.712v2.19h-0.359v-2.722h0.313c0.004-0 0.009-0 0.014-0 0.026 0 0.051 0.003 0.075 0.010l-0.002-0c0.026 0.011 0.046 0.030 0.058 0.053l1.084 1.678c0.021 0.030 0.040 0.064 0.054 0.098zM17.71 30.656v1.021h-0.414v-2.723h0.926c0.010-0 0.022-0 0.035-0 0.171 0 0.338 0.022 0.497 0.063l-0.014-0.003c0.134 0.034 0.259 0.091 0.366 0.17 0.089 0.070 0.159 0.16 0.205 0.262l0.002 0.004c0.050 0.112 0.073 0.23 0.071 0.349 0 0.005 0 0.011 0 0.017 0 0.246-0.117 0.464-0.299 0.602l-0.002 0.001c-0.107 0.082-0.232 0.143-0.368 0.181-0.14 0.040-0.302 0.064-0.468 0.064-0.011 0-0.023-0-0.034-0l-0.501-0.008zM17.71 30.363h0.503c0.109 0.002 0.218-0.012 0.322-0.041 0.089-0.026 0.166-0.066 0.234-0.119l-0.002 0.001c0.117-0.097 0.191-0.241 0.191-0.404 0-0.002 0-0.004-0-0.007v0c0.001-0.009 0.001-0.019 0.001-0.029 0-0.070-0.015-0.136-0.043-0.195l0.001 0.003c-0.035-0.074-0.084-0.136-0.144-0.185l-0.001-0.001c-0.139-0.093-0.31-0.149-0.493-0.149-0.023 0-0.046 0.001-0.069 0.003l0.003-0h-0.503v1.122zM23.294 31.681h-0.328c-0.002 0-0.004 0-0.006 0-0.032 0-0.061-0.009-0.086-0.026l0.001 0c-0.023-0.016-0.042-0.037-0.054-0.062l-0-0.001-0.282-0.658h-1.419l-0.293 0.658c-0.026 0.053-0.079 0.088-0.14 0.088-0.002 0-0.003-0-0.005-0h-0.329l1.246-2.727h0.432l1.263 2.728zM21.237 30.668h1.172l-0.494-1.109c-0.038-0.084-0.069-0.169-0.094-0.257l-0.048 0.142c-0.016 0.048-0.032 0.086-0.049 0.124l0.003-0.008-0.49 1.108zM25.089 28.967c0.024 0.011 0.046 0.028 0.062 0.049l1.818 2.056v-2.117h0.372v2.728h-0.207c-0.001 0-0.003 0-0.005 0-0.029 0-0.057-0.006-0.082-0.017l0.001 0c-0.026-0.013-0.048-0.030-0.066-0.050l-0-0-1.816-2.054c0.001 0.014 0.001 0.030 0.001 0.047s-0.001 0.033-0.002 0.049l0-0.002v2.027h-0.372v-2.727h0.22c0.001-0 0.003-0 0.004-0 0.025 0 0.050 0.005 0.072 0.013l-0.001-0zM30.402 30.597v1.083h-0.415v-1.083l-1.149-1.643h0.372c0.002-0 0.005-0 0.008-0 0.030 0 0.058 0.009 0.082 0.024l-0.001-0c0.023 0.018 0.042 0.038 0.056 0.061l0.718 1.060c0.029 0.046 0.054 0.087 0.075 0.126s0.038 0.078 0.053 0.116l0.053-0.117c0.021-0.043 0.044-0.085 0.071-0.125l0.709-1.067c0.015-0.022 0.033-0.041 0.053-0.058l0-0c0.023-0.017 0.051-0.027 0.082-0.027 0.003 0 0.005 0 0.008 0l-0-0h0.376l-1.15 1.65zM13.509 24.377c0.181 0.020 0.363 0.037 0.549 0.051 2.803-1.090 5.174-2.872 6.818-5.127s2.485-4.878 2.421-7.545l-3.090-2.684c0.629 2.84 0.335 5.775-0.848 8.478s-3.208 5.067-5.849 6.827z"></path>
<path fill="" d="M12.407 24.252l0.083 0.015c2.822-1.754 4.973-4.203 6.176-7.031s1.402-5.904 0.571-8.83l-4.4-3.822c1.779 3.142 2.496 6.659 2.065 10.141-0.43 3.482-1.989 6.786-4.495 9.528zM27.328 14.907c-0.747 2.93-2.563 5.573-5.177 7.537-0.714 0.544-1.519 1.053-2.367 1.491l-0.092 0.043c2.129-0.544 4.085-1.505 5.718-2.809s2.901-2.917 3.703-4.714l-1.784-1.548z"></path>
<path fill="" d="M26.628 14.476l-2.54-2.208c-0.049 2.517-0.872 4.976-2.385 7.123s-3.66 3.901-6.217 5.083h0.012c0.57 0 1.139-0.030 1.705-0.088 2.39-0.848 4.502-2.197 6.146-3.926s2.771-3.785 3.278-5.985zM12.774 2.971l-3.031-2.636c-2.709 0.908-5.039 2.507-6.686 4.587-1.646 2.081-2.531 4.543-2.539 7.067 0.010 2.789 1.090 5.495 3.070 7.69 1.979 2.195 4.744 3.754 7.858 4.43 2.779-2.942 4.407-6.578 4.646-10.379s-0.924-7.57-3.319-10.757zM33.63 14.069c-0.011-3.308-1.528-6.478-4.221-8.818s-6.342-3.657-10.15-3.667c-0.009-0-0.020-0-0.030-0-1.83 0-3.589 0.305-5.228 0.866l0.114-0.034 18.556 16.121c0.605-1.313 0.958-2.849 0.96-4.467v-0.001z"></path>
</symbol>
<symbol id="icon-customer2" viewBox="0 0 26 32">
<path fill="" d="M10.953 2.351h-0.087c-0.134-0.008-0.269-0.011-0.403-0.015v0h-0.291c-0.254 0-0.513 0.006-0.771 0.020-0.019-0.001-0.039-0.001-0.058 0-2.332 0.132-4.618 0.715-6.73 1.717l-0.277 0.133v14.17l0.648-0.22c0.568-0.195 1.174-0.371 1.8-0.534 1.694-0.435 3.433-0.666 5.181-0.688v1.862c-0.232 0.002-0.457 0.008-0.682 0.020h-0.053c-1.345 0.074-2.68 0.279-3.986 0.612-1.654 0.414-3.249 1.036-4.749 1.85v-18.174c1.557-0.908 3.234-1.59 4.982-2.026 1.534-0.396 3.111-0.599 4.695-0.605h0.274c0.327 0.008 0.646 0.023 0.946 0.046 0.789 0.055 1.572 0.18 2.339 0.373v1.833c-0.745-0.174-1.503-0.288-2.267-0.342-0.015-0.001-0.031-0.003-0.046-0.004-0.158-0.013-0.316-0.027-0.464-0.027zM14.178 4.224c0.406 0.031 0.827 0.046 1.253 0.046 1.665-0.006 3.323-0.219 4.936-0.633 1.653-0.416 3.248-1.038 4.747-1.852v17.85c-1.558 0.908-3.236 1.59-4.983 2.026-1.534 0.395-3.111 0.597-4.695 0.604-1.2 0.010-2.397-0.131-3.562-0.42v-17.966c0.275 0.063 0.559 0.122 0.847 0.171 0.473 0.080 0.971 0.138 1.457 0.174zM23.262 4.363l-0.648 0.218c-0.596 0.2-1.196 0.379-1.8 0.539-1.758 0.452-3.565 0.684-5.38 0.69-0.423 0-0.811-0.011-1.187-0.036l-0.516-0.034v14.577l0.444 0.039c0.411 0.036 0.835 0.054 1.263 0.054 1.429-0.006 2.853-0.19 4.237-0.548 1.14-0.286 2.249-0.684 3.311-1.19l0.277-0.133v-14.175z"></path>
<path fill="" d="M1.752 27.489c-0.093-0.097-0.205-0.172-0.329-0.223s-0.257-0.074-0.391-0.069c-0.142-0.002-0.284 0.025-0.416 0.078-0.121 0.048-0.231 0.121-0.324 0.213-0.091 0.093-0.163 0.204-0.209 0.326-0.051 0.128-0.076 0.264-0.074 0.402v2.428c-0.006 0.171 0.027 0.341 0.096 0.498 0.057 0.124 0.14 0.235 0.243 0.325 0.097 0.082 0.211 0.141 0.334 0.173 0.118 0.033 0.24 0.050 0.363 0.050 0.135 0.001 0.269-0.028 0.392-0.085 0.121-0.053 0.231-0.129 0.324-0.225 0.090-0.094 0.162-0.205 0.212-0.326 0.052-0.122 0.078-0.254 0.078-0.387v-0.272h-0.635v0.216c0.002 0.074-0.011 0.147-0.037 0.216-0.021 0.052-0.052 0.098-0.092 0.137-0.039 0.032-0.084 0.056-0.133 0.070-0.043 0.014-0.088 0.022-0.133 0.023-0.057 0.007-0.114-0.002-0.166-0.025s-0.098-0.059-0.132-0.105c-0.060-0.098-0.089-0.211-0.084-0.325v-2.264c-0.004-0.126 0.023-0.25 0.078-0.363 0.033-0.051 0.080-0.092 0.135-0.118s0.116-0.036 0.176-0.028c0.055-0.002 0.109 0.009 0.158 0.033s0.092 0.059 0.125 0.103c0.071 0.093 0.108 0.208 0.105 0.326v0.21h0.628v-0.247c0.001-0.145-0.025-0.289-0.078-0.425-0.047-0.127-0.119-0.243-0.212-0.342z"></path>
<path fill="" d="M5.522 27.461c-0.202-0.171-0.458-0.265-0.722-0.267-0.129 0.001-0.257 0.024-0.379 0.068-0.123 0.044-0.237 0.112-0.335 0.199-0.105 0.095-0.189 0.21-0.246 0.34-0.064 0.148-0.095 0.309-0.092 0.47v2.329c-0.004 0.164 0.027 0.327 0.092 0.477 0.057 0.125 0.141 0.236 0.246 0.326 0.097 0.090 0.211 0.16 0.335 0.205 0.121 0.045 0.25 0.068 0.379 0.068s0.258-0.023 0.379-0.068c0.126-0.046 0.243-0.115 0.343-0.205 0.101-0.091 0.183-0.202 0.24-0.326 0.065-0.15 0.097-0.313 0.092-0.477v-2.329c0.003-0.162-0.028-0.322-0.092-0.47-0.056-0.128-0.138-0.244-0.24-0.34zM5.226 30.601c0.005 0.062-0.003 0.125-0.025 0.183s-0.056 0.111-0.101 0.154c-0.084 0.070-0.19 0.109-0.299 0.109s-0.215-0.038-0.299-0.109c-0.045-0.043-0.079-0.096-0.101-0.154s-0.030-0.121-0.025-0.183v-2.329c-0.005-0.062 0.003-0.125 0.025-0.183s0.056-0.111 0.101-0.154c0.084-0.070 0.19-0.109 0.299-0.109s0.215 0.039 0.299 0.109c0.045 0.043 0.079 0.096 0.101 0.154s0.030 0.121 0.025 0.183v2.329z"></path>
<path fill="" d="M10.475 31.641v-4.409h-0.61l-0.801 2.334h-0.011l-0.808-2.334h-0.604v4.409h0.63v-2.682h0.011l0.617 1.896h0.314l0.622-1.896h0.011v2.682h0.63z"></path>
<path fill="" d="M14.053 27.541c-0.097-0.109-0.219-0.192-0.356-0.241-0.147-0.048-0.302-0.071-0.457-0.068h-0.936v4.409h0.628v-1.722h0.324c0.196 0.009 0.391-0.032 0.567-0.12 0.143-0.079 0.262-0.196 0.345-0.337 0.073-0.117 0.122-0.248 0.144-0.384 0.025-0.166 0.036-0.334 0.034-0.501 0.006-0.212-0.015-0.423-0.062-0.63-0.042-0.153-0.122-0.292-0.232-0.405zM13.729 28.885c-0.003 0.080-0.023 0.158-0.058 0.23-0.036 0.068-0.093 0.122-0.162 0.155-0.093 0.042-0.195 0.061-0.296 0.055h-0.287v-1.499h0.324c0.098-0.005 0.195 0.014 0.283 0.055 0.065 0.037 0.117 0.094 0.147 0.163 0.034 0.077 0.053 0.161 0.055 0.246 0 0.093 0 0.19 0 0.293s0.006 0.208 0 0.303h-0.006z"></path>
<path fill="#" d="M17.029 27.232h-0.515l-0.971 4.409h0.628l0.185-0.947h0.856l0.185 0.947h0.628l-0.996-4.409zM16.449 30.093l0.309-1.598h0.011l0.308 1.598h-0.628z"></path>
<path fill="" d="M21.088 29.888h-0.011l-0.949-2.656h-0.604v4.409h0.628v-2.651h0.013l0.96 2.651h0.591v-4.409h-0.628v2.656z"></path>
<path fill="" d="M24.926 27.232l-0.505 1.753h-0.013l-0.505-1.753h-0.665l0.863 2.545v1.863h0.628v-1.863l0.863-2.545h-0.665z"></path>
</symbol>
</defs>
</svg>

<symbol id="icon-Instagram" viewBox="0 0 32 32">
<path fill="" d="M31.968 9.408c-0.074-1.701-0.349-2.869-0.742-3.882-0.424-1.111-1.054-2.059-1.85-2.837l-0.001-0.001c-0.78-0.792-1.724-1.419-2.778-1.827l-0.054-0.018c-1.019-0.394-2.181-0.667-3.882-0.742-1.712-0.082-2.256-0.101-6.602-0.101-4.344 0-4.888 0.019-6.595 0.094-1.699 0.074-2.869 0.349-3.88 0.742-1.112 0.424-2.060 1.054-2.839 1.85l-0.001 0.001c-0.791 0.78-1.418 1.724-1.825 2.778l-0.018 0.054c-0.395 1.019-0.669 2.181-0.744 3.882-0.082 1.712-0.101 2.256-0.101 6.602 0 4.344 0.019 4.888 0.094 6.595 0.075 1.701 0.35 2.869 0.744 3.882 0.426 1.11 1.055 2.057 1.849 2.837l0.001 0.001c0.8 0.813 1.77 1.443 2.832 1.843 1.019 0.395 2.182 0.67 3.882 0.744 1.707 0.075 2.251 0.094 6.595 0.094 4.346 0 4.89-0.019 6.595-0.094 1.701-0.074 2.869-0.349 3.882-0.742 2.157-0.85 3.833-2.526 4.664-4.628l0.019-0.055c0.394-1.019 0.669-2.182 0.744-3.882 0.075-1.707 0.093-2.251 0.093-6.595s-0.006-4.888-0.080-6.595zM29.088 22.474c-0.070 1.563-0.333 2.406-0.55 2.97-0.552 1.399-1.64 2.486-3.004 3.024l-0.036 0.012c-0.56 0.219-1.411 0.482-2.968 0.55-1.688 0.075-2.194 0.094-6.464 0.094-4.269 0-4.782-0.019-6.464-0.094-1.563-0.069-2.406-0.331-2.97-0.55-0.721-0.269-1.334-0.676-1.836-1.192l-0.001-0.001c-0.517-0.503-0.924-1.117-1.184-1.803l-0.011-0.034c-0.218-0.563-0.48-1.413-0.549-2.97-0.075-1.688-0.094-2.195-0.094-6.464 0-4.27 0.019-4.784 0.094-6.464 0.069-1.563 0.331-2.406 0.549-2.97 0.269-0.722 0.678-1.337 1.198-1.837l0.002-0.002c0.504-0.517 1.119-0.923 1.806-1.182l0.034-0.011c0.56-0.219 1.411-0.48 2.968-0.55 1.688-0.074 2.195-0.093 6.464-0.093 4.275 0 4.782 0.019 6.464 0.093 1.563 0.069 2.406 0.331 2.97 0.55 0.693 0.256 1.325 0.662 1.837 1.194 0.531 0.52 0.938 1.144 1.195 1.84 0.218 0.56 0.48 1.411 0.549 2.968 0.075 1.688 0.094 2.194 0.094 6.464 0 4.269-0.019 4.768-0.094 6.458z"></path>
<path fill="" d="M16.059 7.782c-4.539 0.002-8.218 3.682-8.219 8.221v0c0.091 4.471 3.737 8.060 8.221 8.060s8.13-3.589 8.221-8.052l0-0.009c-0.001-4.54-3.681-8.22-8.221-8.221h-0zM16.059 21.334c-2.945-0-5.332-2.388-5.332-5.333s2.388-5.333 5.333-5.333c0 0 0.001 0 0.001 0h-0c2.946 0 5.334 2.388 5.334 5.334s-2.388 5.334-5.334 5.334v0zM26.525 7.458c0 1.060-0.86 1.92-1.92 1.92s-1.92-0.86-1.92-1.92v0c0-1.060 0.86-1.92 1.92-1.92s1.92 0.86 1.92 1.92v0z"></path>
</symbol>
<symbol id="icon-LinkedIn" viewBox="0 0 32 32">
<path fill="" d="M31.992 32h0.008v-11.738c0-5.741-1.237-10.163-7.947-10.163-3.227 0-5.392 1.77-6.277 3.45h-0.093v-2.914h-6.365v21.363h6.627v-10.578c0-2.786 0.528-5.48 3.978-5.48 3.398 0 3.448 3.179 3.448 5.658v10.402h6.621zM0.528 10.635h6.635v21.365h-6.635v-21.365zM3.843 0c-2.123 0-3.843 1.721-3.843 3.843v0c0 2.12 1.722 3.878 3.843 3.878 2.12 0 3.842-1.757 3.842-3.878s-1.72-3.841-3.841-3.843h-0z"></path>
</symbol>
<symbol id="icon-smartphone" viewBox="0 0 20 32">
<path fill="" d="M17 0h-14c-1.654 0-3 1.346-3 3v26c0 1.654 1.346 3 3 3h14c1.654 0 3-1.346 3-3v-26c0-1.654-1.346-3-3-3zM3 2h14c0.552 0 1 0.448 1 1v0 21h-16v-21c0-0.552 0.448-1 1-1v0zM17 30h-14c-0.552 0-1-0.448-1-1v0-3h16v3c0 0.552-0.448 1-1 1v0z"></path>
<path fill="#757575" style="fill: var(--color3, #757575)" d="M4.708 27.478c0.18 0.163 0.293 0.399 0.293 0.66s-0.113 0.497-0.292 0.659l-0.001 0.001c-0.186 0.17-0.435 0.275-0.708 0.275s-0.522-0.104-0.709-0.275l0.001 0.001c-0.18-0.163-0.293-0.399-0.293-0.66s0.113-0.497 0.292-0.659l0.001-0.001c0.186-0.17 0.435-0.275 0.708-0.275s0.522 0.104 0.709 0.275l-0.001-0.001z"></path>
</symbol>
<svg aria-hidden="true" style="position: absolute; width: 0; height: 0; overflow: hidden;" version="1.1" xmlns="http://www.w3.org/2000/svg" xmlns:xlink="http://www.w3.org/1999/xlink">
<defs>
<svg aria-hidden="true" style="position: absolute; width: 0; height: 0; overflow: hidden;" version="1.1" xmlns="http://www.w3.org/2000/svg" xmlns:xlink="http://www.w3.org/1999/xlink">
<defs>
<symbol id="icon-twitter" viewBox="0 0 32 32">
<path fill="" d="M32 6.078c-1.1 0.493-2.376 0.857-3.713 1.028l-0.068 0.007c1.36-0.817 2.382-2.078 2.873-3.579l0.013-0.046c-1.197 0.722-2.591 1.273-4.076 1.573l-0.084 0.014c-1.2-1.279-2.9-2.076-4.787-2.076-3.622 0-6.558 2.936-6.558 6.558 0 0.001 0 0.003 0 0.004v-0c0 0.52 0.043 1.021 0.152 1.496-5.454-0.266-10.28-2.88-13.522-6.861-0.564 0.949-0.899 2.092-0.902 3.313v0.001c0 2.272 1.171 4.286 2.914 5.451-1.091-0.030-2.107-0.325-2.994-0.823l0.033 0.017v0.072c0.003 3.165 2.236 5.807 5.213 6.44l0.043 0.008c-0.499 0.136-1.071 0.215-1.662 0.215-0.020 0-0.041-0-0.061-0l0.003 0c-0.419 0-0.843-0.024-1.242-0.112 0.85 2.598 3.261 4.509 6.13 4.57-2.215 1.746-5.045 2.8-8.122 2.8-0.004 0-0.008 0-0.013 0h0.001c-0.018 0-0.040 0-0.062 0-0.531 0-1.055-0.034-1.569-0.099l0.061 0.006c2.826 1.846 6.287 2.944 10.004 2.944 0.021 0 0.042-0 0.063-0h-0.003c12.072 0 18.672-10 18.672-18.669 0-0.288-0.010-0.57-0.024-0.848 1.299-0.936 2.39-2.064 3.258-3.355l0.030-0.047z"></path>
</symbol>
</defs>
</svg>
<svg aria-hidden="true" style="position: absolute; width: 0; height: 0; overflow: hidden;" version="1.1" xmlns="http://www.w3.org/2000/svg" xmlns:xlink="http://www.w3.org/1999/xlink">
<defs>
<symbol id="icon-close_icon-1" viewBox="0 0 32 32">
<path d="M32 3.2l-3.2-3.2-12.8 12.8-12.8-12.8-3.2 3.2 12.8 12.8-12.8 12.8 3.2 3.2 12.8-12.8 12.8 12.8 3.2-3.2-12.8-12.8 12.8-12.8z"></path>
</symbol>
</defs>
</svg>

<svg aria-hidden="true" style="position: absolute; width: 0; height: 0; overflow: hidden;" version="1.1" xmlns="http://www.w3.org/2000/svg" xmlns:xlink="http://www.w3.org/1999/xlink">
<defs>
<symbol id="icon-send-2" viewBox="0 0 32 32">
<path fill="#fff" style="fill: var(--color1, #fff)" d="M32 0l-32 18 10.227 3.787 15.773-14.787-11.997 16.187 0.009 0.003-0.012-0.003v8.813l5.735-6.691 7.267 2.691 4.999-28z"></path>
</symbol>
</defs>
</svg>

<svg aria-hidden="true" style="position: absolute; width: 0; height: 0; overflow: hidden;" version="1.1" xmlns="http://www.w3.org/2000/svg" xmlns:xlink="http://www.w3.org/1999/xlink">
<defs>

<symbol id="icon-email-black" viewBox="0 0 32 32">
<path d="M26.667 5.333h-21.333c-1.467 0-2.652 1.2-2.652 2.667l-0.014 16c0 1.467 1.2 2.667 2.667 2.667h21.333c1.467 0 2.667-1.2 2.667-2.667v-16c0-1.467-1.2-2.667-2.667-2.667zM26.133 11.001l-9.426 5.892c-0.201 0.126-0.446 0.2-0.708 0.2s-0.506-0.075-0.713-0.204l0.006 0.003-9.426-5.892c-0.336-0.201-0.557-0.562-0.557-0.975 0-0.625 0.507-1.132 1.132-1.132 0.233 0 0.449 0.070 0.629 0.19l-0.004-0.003 8.933 5.586 8.933-5.588c0.176-0.118 0.392-0.188 0.624-0.188 0.625 0 1.132 0.507 1.132 1.132 0 0.413-0.221 0.775-0.552 0.972l-0.005 0.003z"></path>
</symbol>
<svg aria-hidden="true" style="position: absolute; width: 0; height: 0; overflow: hidden;" version="1.1" xmlns="http://www.w3.org/2000/svg" xmlns:xlink="http://www.w3.org/1999/xlink">
<defs>
<symbol id="icon-phone-black" viewBox="0 0 32 32">
<path class="form-icon" d="M24.882 19.774l-3.268-0.373c-0.090-0.011-0.194-0.018-0.299-0.018-0.707 0-1.348 0.287-1.811 0.75l-2.368 2.368c-3.669-1.894-6.585-4.81-8.427-8.372l-0.051-0.108 2.382-2.377c0.463-0.463 0.75-1.103 0.75-1.81 0-0.106-0.006-0.21-0.019-0.312l0.001 0.012-0.373-3.243c-0.155-1.287-1.24-2.276-2.557-2.276-0.001 0-0.002 0-0.003 0h-2.226c-1.454 0-2.663 1.209-2.574 2.663 0.683 10.987 9.47 19.76 20.444 20.443 1.452 0.089 2.663-1.12 2.663-2.574v-2.226c0-0.004 0-0.008 0-0.012 0-1.308-0.985-2.386-2.253-2.532l-0.012-0.001z"></path>
</symbol>
</defs>
</svg>


<symbol id="icon-person-black" viewBox="0 0 32 32">
<path d="M16 16c2.946 0 5.333-2.388 5.333-5.333s-2.388-5.333-5.333-5.333v0c-2.946 0-5.333 2.388-5.333 5.333s2.388 5.333 5.333 5.333v0zM16 18.667c-3.561 0-10.667 1.787-10.667 5.333v1.333c0 0.732 0.599 1.333 1.333 1.333h18.667c0.732 0 1.333-0.601 1.333-1.333v-1.333c0-3.547-7.108-5.333-10.667-5.333z"></path>
</symbol>
</defs>
</svg>

<svg aria-hidden="true" style="position: absolute; width: 0; height: 0; overflow: hidden;" version="1.1" xmlns="http://www.w3.org/2000/svg" xmlns:xlink="http://www.w3.org/1999/xlink">
<defs>
<symbol id="icon-Vector" viewBox="0 0 42 32">
<path fill="#fff" style="fill: var(--color1, #fff); stroke: var(--color1, #fff)" stroke="#fff" stroke-linejoin="miter" stroke-linecap="butt" stroke-miterlimit="4" stroke-width="0.64" d="M6.262 15.206l-0.221-0.211-0.221 0.208-3.085 2.925 0.243 0.234 11.408 10.88 0.221-0.211 24.256-23.139-0.243-0.23-3.043-2.902-0.221 0.211-20.97 19.987-8.125-7.75z"></path>
</symbol>
</defs>
</svg>



<svg aria-hidden="true" style="position: absolute; width: 0; height: 0; overflow: hidden;" version="1.1" xmlns="http://www.w3.org/2000/svg" xmlns:xlink="http://www.w3.org/1999/xlink">
<defs>
<symbol id="icon-phone" viewBox="0 0 32 32">
<path d="M22 20c-2 2-2 4-4 4s-4-2-6-4-4-4-4-6 2-2 4-4-4-8-6-8-6 6-6 6c0 4 4.109 12.109 8 16s12 8 16 8c0 0 6-4 6-6s-6-8-8-6z"></path>
</symbol>
<symbol id="icon-user" viewBox="0 0 32 32">
<path d="M18 22.082v-1.649c2.203-1.241 4-4.337 4-7.432 0-4.971 0-9-6-9s-6 4.029-6 9c0 3.096 1.797 6.191 4 7.432v1.649c-6.784 0.555-12 3.888-12 7.918h28c0-4.030-5.216-7.364-12-7.918z"></path>
</symbol>
</defs>
</svg>


